<svg xmlns="http://www.w3.org/2000/svg" viewBox="0 0 311 308" width="311" height="308">
	<style>
		tspan { white-space:pre }
		.shp0 { fill: white; } 
	</style>
	<g id="Layer 1">
		<g id="&lt;Group&gt;">
			<g id="&lt;Group&gt;">
				<path id="&lt;Path&gt;" class="shp0" d="M199.77 3.8C196.27 25.29 177.67 41.69 155.2 41.69C132.73 41.69 114.13 25.29 110.63 3.8" />
				<path id="&lt;Path&gt;" class="shp0" d="M155.2 41.69C177.67 41.69 196.27 25.29 199.77 3.8C185.65 -0.42 170.69 -2.73 155.2 -2.73C139.7 -2.73 124.74 -0.42 110.63 3.8C114.13 25.29 132.73 41.69 155.2 41.69Z" />
				<path id="&lt;Path&gt;" class="shp0" d="M155.2 263.25C132.73 263.25 114.13 279.67 110.63 301.15C124.74 305.38 139.7 307.68 155.2 307.68C170.69 307.68 185.65 305.38 199.77 301.15C196.27 279.67 177.67 263.25 155.2 263.25Z" />
				<path id="&lt;Path&gt;" class="shp0" d="M76.87 74.14C92.76 58.25 94.3 33.49 81.58 15.82C54.91 30.21 32.94 52.19 18.55 78.86C36.22 91.57 60.97 90.04 76.87 74.14Z" />
				<path id="&lt;Path&gt;" class="shp0" d="M233.53 230.8C217.64 246.7 216.1 271.46 228.81 289.13C255.49 274.74 277.46 252.76 291.85 226.09C274.18 213.38 249.42 214.92 233.53 230.8Z" />
				<path id="&lt;Path&gt;" class="shp0" d="M44.43 152.48C44.42 130 28.01 111.41 6.53 107.91C2.3 122.03 0 136.98 0 152.48C0 167.97 2.3 182.92 6.53 197.05C28.01 193.54 44.42 174.95 44.43 152.48Z" />
				<path id="&lt;Path&gt;" class="shp0" d="M303.87 107.9C282.39 111.41 265.98 130 265.98 152.48C265.98 174.95 282.39 193.53 303.87 197.05C308.1 182.93 310.4 167.97 310.4 152.48C310.4 136.97 308.1 122.02 303.87 107.9Z" />
				<path id="&lt;Path&gt;" class="shp0" d="M76.87 230.8C60.97 214.92 36.22 213.38 18.55 226.09C32.94 252.77 54.91 274.74 81.58 289.13C94.3 271.46 92.76 246.7 76.87 230.8Z" />
				<path id="&lt;Path&gt;" class="shp0" d="M233.53 74.14C249.42 90.04 274.18 91.57 291.85 78.87C277.46 52.19 255.49 30.21 228.81 15.82C216.1 33.5 217.64 58.24 233.53 74.14Z" />
			</g>
			<path id="&lt;Path&gt;" class="shp0" d="M169.5 69.17C169.5 61.27 163.1 54.87 155.2 54.87C147.31 54.87 140.9 61.27 140.9 69.17C140.9 77.06 147.31 83.47 155.2 83.47C163.1 83.47 169.5 77.06 169.5 69.17Z" />
			<path id="&lt;Path&gt;" class="shp0" d="M169.5 236.47C169.5 228.57 163.1 222.17 155.2 222.17C147.31 222.17 140.9 228.57 140.9 236.47C140.9 244.36 147.31 250.76 155.2 250.76C163.1 250.76 169.5 244.36 169.5 236.47Z" />
			<path id="&lt;Path&gt;" class="shp0" d="M106.16 83.56C100.58 77.97 91.53 77.97 85.94 83.56C80.36 89.14 80.36 98.2 85.94 103.78C91.53 109.36 100.58 109.36 106.16 103.78C111.74 98.2 111.74 89.14 106.16 83.56Z" />
			<path id="&lt;Path&gt;" class="shp0" d="M224.46 201.86C218.88 196.27 209.82 196.27 204.24 201.86C198.66 207.44 198.66 216.49 204.24 222.08C209.82 227.66 218.88 227.66 224.46 222.08C230.04 216.49 230.04 207.44 224.46 201.86Z" />
			<path id="&lt;Path&gt;" class="shp0" d="M71.55 138.52C63.66 138.52 57.26 144.92 57.26 152.82C57.26 160.72 63.66 167.12 71.55 167.12C79.45 167.12 85.85 160.72 85.85 152.82C85.85 144.93 79.45 138.52 71.55 138.52Z" />
			<path id="&lt;Path&gt;" class="shp0" d="M238.85 138.52C230.96 138.52 224.55 144.92 224.55 152.82C224.55 160.72 230.96 167.12 238.85 167.12C246.75 167.12 253.15 160.72 253.15 152.82C253.15 144.93 246.75 138.52 238.85 138.52Z" />
			<path id="&lt;Path&gt;" class="shp0" d="M85.94 201.86C80.36 207.44 80.36 216.49 85.94 222.08C91.53 227.66 100.58 227.66 106.16 222.08C111.75 216.49 111.75 207.44 106.16 201.87C100.58 196.28 91.53 196.28 85.94 201.86Z" />
			<path id="&lt;Path&gt;" class="shp0" d="M204.24 83.56C198.65 89.14 198.65 98.2 204.24 103.78C209.82 109.36 218.88 109.36 224.46 103.78C230.04 98.2 230.04 89.15 224.46 83.56C218.88 77.98 209.82 77.98 204.24 83.56Z" />
		</g>
	</g>
</svg>